<?xml version="1.0" encoding="utf-8"?>
<!-- Svg Vector Icons : http://www.onlinewebfonts.com/icon -->
<!DOCTYPE svg PUBLIC "-//W3C//DTD SVG 1.1//EN" "http://www.w3.org/Graphics/SVG/1.1/DTD/svg11.dtd">
<svg version="1.1" xmlns="http://www.w3.org/2000/svg" xmlns:xlink="http://www.w3.org/1999/xlink" x="0px" y="0px" viewBox="0 0 1000 1000" enable-background="new 0 0 1000 1000" xml:space="preserve">
<metadata> Svg Vector Icons : http://www.onlinewebfonts.com/icon </metadata>
<g><g transform="translate(0.000000,511.000000) scale(0.100000,-0.100000)"><path d="M6045.8,4977.1c-288.4-76.9-532-279.9-668.7-557.6c-85.5-170.9-91.9-196.6-98.3-395.2c-6.4-158.1,0-250,27.8-352.5l38.5-138.9l-51.3-47c-27.7-27.8-333.3-311.9-679.4-634.5l-628.1-585.4l190.1-44.9c104.7-25.6,294.8-70.5,420.9-100.4l230.7-53.4l207.2,196.5c115.4,106.8,339.7,318.3,502.1,470l294.8,275.6l132.4-44.9c72.7-25.6,185.9-53.4,252.1-59.8l117.5-12.8l324.7-867.4c177.3-476.5,320.5-871.7,314.1-876c-4.3-6.4-1063.9,239.3-2354.4,542.7c-2279.6,536.3-2352.2,553.4-2570.2,553.4c-181.6,0-254.2-10.7-382.4-51.3c-205.1-68.4-444.4-228.6-572.6-382.4C899,1571.6,884.1,1522.4,476-212.4L100-1814.7l10.7-235c6.4-175.2,21.4-267.1,57.7-363.2c117.5-307.7,356.8-574.7,630.3-705c106.8-51.3,333.3-115.4,790.5-222.2c352.5-81.2,1875.8-440.1,3386.3-794.8c2095.9-491.4,2788.1-647.4,2927-653.8c393.1-21.4,764.8,143.1,1027.6,457.2c181.6,217.9,203,288.4,598.2,1972C9889.3-832,9897.9-782.8,9900-554.2c0,192.3-8.6,264.9-51.3,391c-104.7,318.3-335.4,585.4-630.3,730.7c-138.9,68.4-292.7,113.2-771.3,224.3c-326.9,76.9-602.5,147.4-611,156c-8.6,8.6-196.6,504.2-420.9,1102.4l-408.1,1089.6l74.8,83.3c314.1,346.1,378.2,820.4,166.7,1234.9C7041.4,4870.3,6505.1,5101,6045.8,4977.1z M6545.7,4432.3c53.4-25.6,130.3-85.5,173-132.4c339.7-397.4-51.3-989.2-557.6-848.2c-269.2,74.8-431.6,388.8-348.2,666.6c32.1,109,175.2,269.2,284.2,318.3C6218.9,4492.1,6421.8,4490,6545.7,4432.3z M3106,1306.6C6776.5,452,8836-37.2,8904.4-73.5c98.3-49.1,203-164.5,249.9-273.5c64.1-151.7,44.9-267.1-256.4-1553.2c-457.2-1946.3-433.7-1854.4-517-1963.4c-94-123.9-267.1-211.5-420.9-211.5c-100.4,0-6657.3,1525.4-6813.2,1585.3c-85.5,32-228.6,168.8-275.6,264.9c-70.5,134.6-72.6,254.3-8.5,517c29.9,130.3,194.4,828.9,365.3,1555.4c168.8,726.4,322.6,1348.1,339.7,1382.3c81.2,158.1,235,271.3,405.9,299.1C2082.7,1548.1,1988.6,1565.2,3106,1306.6z"/><path d="M2037.8,110.2c-258.5-119.6-427.3-459.3-423-848.2c2.1-277.7,121.8-470,341.8-553.3c143.1-53.4,290.6-53.4,401.7-2.1c205.1,91.9,350.4,344,254.2,438c-59.8,59.8-111.1,38.5-198.7-79c-98.3-134.6-177.3-175.2-316.2-158.1c-76.9,8.6-115.4,25.6-160.2,76.9C1822-887.5,1813.5-720.9,1903.2-426c36.3,113.2,70.5,170.9,145.3,250c89.7,94,106.8,102.5,198.7,102.5c53.4,0,123.9-10.7,153.8-25.6c64.1-29.9,128.2-128.2,149.6-230.7c47-235,224.3-226.5,224.3,12.8C2772.7,39.7,2377.5,268.3,2037.8,110.2z"/><path d="M3108.2-99.2c-34.2-57.7-311.9-1185.7-311.9-1275.5c0-32.1,17.1-74.8,38.5-91.9c42.7-38.5,696.5-196.6,743.5-179.5c17.1,6.4,40.6,36.3,51.3,68.4c40.6,106.8-8.5,141-290.6,209.4c-141,34.2-260.6,66.3-269.2,74.8c-8.5,8.6,40.6,247.8,111.1,534.1c132.5,532,147.4,636.7,102.5,681.5C3240.6-35.1,3142.3-47.9,3108.2-99.2z"/><path d="M4302.4-370.5c-239.3-59.8-414.5-286.3-493.5-640.9c-42.7-192.3-32-382.4,32-525.6c59.8-134.6,115.4-192.3,247.8-262.8c89.7-47,134.6-57.7,279.9-57.7c153.8,0,181.6,6.4,277.7,64.1c224.3,138.9,361.1,446.5,361.1,811.9c0,196.6-4.3,222.2-64.1,326.9C4868.6-515.8,4749-428.2,4578-383.3C4443.5-349.1,4402.9-347,4302.4-370.5z M4584.5-631.1c126-62,183.7-173,183.7-363.2c0-198.7-74.8-410.2-188-529.8c-81.2-85.5-100.4-96.1-205.1-102.5c-215.8-19.2-339.7,123.9-339.7,391c0,279.9,117.5,532,284.1,606.8C4434.9-575.6,4471.2-575.6,4584.5-631.1z"/><path d="M5445.4-716.6c-123.9-76.9-188-194.4-190.1-356.8c-4.3-177.3,76.9-277.7,354.6-440.1c211.5-123.9,252.1-267.1,109-386.7c-115.4-98.3-322.6-55.6-386.7,81.2c-19.2,40.6-36.3,98.3-36.3,128.2c0,96.1-38.4,164.5-89.7,164.5c-70.5,0-100.4-25.6-123.9-104.7c-47-166.6,64.1-384.6,241.4-476.4c123.9-62,331.2-74.8,452.9-29.9c164.5,64.1,267.1,228.6,267.1,433.7c0,181.6-64.1,271.3-309.8,423c-256.4,160.2-303.4,254.2-190.1,367.5c47,47,68.3,53.4,149.6,42.7c132.4-15,194.4-62,222.2-168.8c38.4-153.8,59.8-188,113.2-188c74.8,0,121.8,64.1,121.8,168.8c0,149.6-100.4,286.3-260.6,352.5C5768.1-654.6,5537.3-661,5445.4-716.6z"/><path d="M6507.3-938.8c-34.2-32-316.2-1145.2-318.3-1254.1c-2.1-34.2,12.8-76.9,32.1-96.1c36.3-36.3,668.7-198.7,775.5-198.7c42.7,0,72.7,12.8,81.2,34.2c21.4,53.4,14.9,126.1-12.8,153.8c-12.8,12.8-158.1,55.5-320.5,91.9c-200.8,47-294.8,79.1-294.8,98.3c0,17.1,21.4,111.1,44.9,211.5c36.3,145.3,53.4,181.6,81.2,173.1c435.8-113.2,536.2-130.3,570.4-96.1c34.2,34.2,47,134.6,21.4,160.2c-8.5,8.5-134.6,44.9-282,83.3c-149.6,38.5-273.5,74.8-279.9,81.2c-10.7,8.6,51.3,301.3,70.5,335.4c4.3,6.4,143.1-19.2,309.8-59.8c286.3-68.4,303.4-70.5,341.8-36.3c57.7,51.3,53.4,153.8-6.4,179.5c-70.5,29.9-675.1,170.9-732.8,170.9C6560.7-906.7,6524.4-921.7,6507.3-938.8z"/><path d="M7616.1-1231.5c-32-53.4-311.9-1170.8-311.9-1249.8c0-76.9,51.3-104.7,299.1-166.7c288.4-70.5,425.2-66.2,553.3,17.1c181.6,119.6,320.5,423,337.6,741.4c12.8,200.8-10.7,318.3-85.4,429.4c-74.8,109-162.4,158.1-408.1,220C7720.8-1171.7,7656.7-1169.5,7616.1-1231.5z M8086.1-1513.5c94-42.7,115.4-64.1,147.4-149.6c27.8-72.6,34.2-128.2,23.5-213.7c-38.5-337.6-196.5-589.6-367.5-589.6c-72.7,0-299.1,49.1-318.3,68.4c-4.3,4.3,40.6,198.7,98.3,433.7c57.7,235,109,450.8,115.4,478.6c12.8,44.9,21.3,49.2,102.5,36.3C7936.6-1457.9,8026.3-1485.7,8086.1-1513.5z"/></g></g>
</svg>