<?xml version="1.0" encoding="utf-8"?>
<!-- Svg Vector Icons : http://www.onlinewebfonts.com/icon -->
<!DOCTYPE svg PUBLIC "-//W3C//DTD SVG 1.1//EN" "http://www.w3.org/Graphics/SVG/1.1/DTD/svg11.dtd">
<svg version="1.1" xmlns="http://www.w3.org/2000/svg" xmlns:xlink="http://www.w3.org/1999/xlink" x="0px" y="0px" viewBox="0 0 1000 1000" enable-background="new 0 0 1000 1000" xml:space="preserve">
<metadata> Svg Vector Icons : http://www.onlinewebfonts.com/icon </metadata>
<g><path d="M879,360.5h-23.5V247c0-0.7-0.1-1.4-0.2-2.1c0-4.5-1.5-8.9-4.6-12.4L661.8,16.6c-0.1-0.1-0.1-0.1-0.2-0.1c-1.1-1.3-2.4-2.3-3.8-3.2c-0.4-0.3-0.8-0.5-1.3-0.7c-1.2-0.7-2.5-1.2-3.8-1.6c-0.4-0.1-0.7-0.2-1-0.3c-1.4-0.3-2.9-0.5-4.4-0.5H182.9c-21.2,0-38.4,17.2-38.4,38.4v312.1H121c-30.3,0-54.9,24.6-54.9,54.9v285.6c0,30.3,24.6,54.9,54.9,54.9h23.5v195.5c0,21.2,17.2,38.4,38.4,38.4h634.1c21.2,0,38.4-17.2,38.4-38.4V756H879c30.3,0,54.9-24.6,54.9-54.9V415.5C933.9,385.1,909.4,360.5,879,360.5z M182.9,48.4h445.2v196.6c0,10.6,8.6,19.2,19.2,19.2h169.8v96.3H182.9V48.4z M587.9,409.7v287h-65.2v-287H587.9z M271.5,463.4v-53.6h208.2v37.5L346,641.3v1.7h135.8v53.7H258.7v-34.9l136.7-196.7v-1.7H271.5z M817.1,941.2H182.9V756h634.1V941.2z M823.7,565.1c-22.1,20.9-54.9,30.2-93.2,30.2c-8.5,0-16.2-0.4-22.1-1.3v102.6h-64.3V413.6c20-3.4,48.1-6,87.7-6c40,0,68.5,7.7,87.7,23c18.3,14.5,30.6,38.3,30.6,66.4C850.1,525.1,840.8,548.9,823.7,565.1z"/><path d="M735.2,456.6c-13.2,0-22.2,1.3-26.8,2.6v84.7c5.5,1.3,12.3,1.7,21.7,1.7c34.5,0,55.8-17.5,55.8-46.8C785.9,472.3,767.5,456.6,735.2,456.6z"/></g>
</svg>